<?xml version="1.0" standalone="no"?>
<!DOCTYPE svg PUBLIC "-//W3C//DTD SVG 20010904//EN"
 "http://www.w3.org/TR/2001/REC-SVG-20010904/DTD/svg10.dtd">
<svg version="1.0" xmlns="http://www.w3.org/2000/svg"
 width="900.000000pt" height="900.000000pt" viewBox="0 0 900.000000 900.000000"
 preserveAspectRatio="xMidYMid meet">
<metadata>
Created by potrace 1.11, written by Peter Selinger 2001-2013
</metadata>
<g transform="translate(0.000000,900.000000) scale(0.100000,-0.100000)"
fill="#000000" stroke="none">
<path d="M3660 8991 c-8 -5 -53 -17 -100 -26 -284 -57 -577 -145 -907 -274
-100 -39 -186 -71 -192 -71 -15 0 -30 -33 -27 -61 4 -32 24 -70 103 -192 58
-88 167 -242 183 -257 3 -3 18 -21 34 -40 16 -19 68 -78 115 -130 90 -97 147
-162 169 -192 11 -14 4 -45 -47 -196 -53 -155 -101 -333 -131 -477 -4 -22 -15
-73 -24 -112 -43 -195 -52 -342 -30 -468 16 -92 26 -127 65 -217 19 -43 28
-77 24 -95 -15 -85 -20 -153 -19 -288 0 -139 2 -156 27 -225 15 -41 30 -83 33
-92 5 -12 -3 -21 -27 -31 -132 -54 -296 -43 -407 27 -66 41 -84 11 -36 -59 31
-47 36 -51 104 -102 98 -73 143 -85 323 -86 64 0 114 -4 110 -8 -5 -4 -34 -23
-66 -42 l-57 -35 -91 29 c-163 53 -195 50 -272 -25 -20 -19 -55 -40 -77 -46
-57 -15 -114 -70 -141 -135 -13 -30 -26 -55 -31 -55 -4 0 -28 -27 -52 -60 -53
-71 -92 -168 -95 -231 -1 -9 -15 -34 -32 -55 -35 -43 -85 -145 -90 -184 -2
-13 -18 -37 -35 -52 -42 -38 -77 -106 -114 -228 -18 -58 -39 -109 -48 -114
-49 -28 -145 -155 -212 -280 -121 -226 -216 -488 -335 -921 -69 -252 -117
-393 -204 -602 -43 -103 -90 -222 -106 -263 -15 -41 -31 -84 -36 -95 -26 -60
-74 -268 -84 -363 -7 -66 -7 -216 0 -267 20 -137 32 -197 55 -282 55 -192 158
-443 203 -491 12 -13 38 -31 57 -39 68 -31 75 9 -57 -327 -42 -108 -51 -141
-41 -147 19 -12 6375 -12 6382 0 4 5 -9 42 -28 83 -18 40 -44 96 -56 123 -13
28 -43 93 -67 145 -80 169 -132 306 -158 412 -50 200 -55 222 -51 225 5 5 56
-63 78 -102 27 -50 58 -133 89 -237 42 -147 60 -171 112 -160 13 3 16 10 11
30 -14 65 -121 296 -197 424 l-45 76 35 -15 c20 -8 51 -13 71 -11 42 3 46 -2
156 -227 40 -82 82 -161 94 -175 18 -22 21 -23 27 -8 11 29 -24 124 -105 285
-74 145 -76 152 -58 167 10 9 22 16 27 16 19 0 101 73 107 96 8 33 -19 70
-117 159 -42 39 -77 75 -78 80 0 6 22 23 51 39 127 71 159 133 88 168 -57 28
-186 56 -267 57 -17 1 -23 7 -23 25 0 28 18 45 55 52 50 9 142 51 203 93 144
97 220 217 282 445 54 196 57 281 15 511 -28 150 -111 385 -136 385 -17 0 -9
25 19 55 15 17 54 64 87 105 33 41 63 77 66 80 15 12 119 172 119 183 -1 33
-31 47 -182 82 -62 15 -117 31 -121 35 -9 8 -13 30 -22 120 -3 36 -8 79 -10
95 -2 17 -7 53 -10 80 -36 314 -97 549 -191 740 -97 198 -213 312 -381 376
-23 8 -23 10 -8 46 9 20 23 46 32 56 16 17 102 61 188 95 57 22 240 118 303
158 71 46 137 108 152 143 11 28 7 73 -24 251 -3 14 -12 76 -21 138 -9 62 -18
121 -19 130 -2 9 -6 38 -10 63 -4 25 -9 57 -11 70 -2 13 -9 60 -15 104 -7 44
-14 88 -16 99 -2 10 -6 39 -9 65 -3 25 -9 71 -15 101 -5 30 -12 75 -15 100 -7
50 -23 154 -29 185 -2 11 -7 43 -10 70 -4 28 -9 61 -11 75 -2 14 -11 70 -20
125 -45 282 -175 786 -244 950 -5 11 -23 58 -41 105 -69 180 -209 460 -265
530 -7 8 -27 56 -45 105 -18 50 -37 96 -43 103 -7 9 -324 12 -1526 12 -834 0
-1523 -4 -1531 -9z m-564 -3779 c25 -17 56 -112 37 -112 -8 0 -63 27 -163 80
l-45 24 30 5 c50 10 129 11 141 3z m4134 -3627 c55 -8 89 -23 107 -51 12 -19
11 -25 -12 -53 -15 -17 -44 -36 -64 -42 -37 -11 -41 -10 -120 41 -61 39 -81
57 -81 74 0 44 29 49 170 31z m-107 -167 c76 -44 176 -137 202 -189 24 -45 16
-71 -28 -94 l-37 -20 -33 40 c-17 22 -71 79 -120 127 -74 74 -88 93 -89 121
-1 37 7 57 23 57 6 0 43 -19 82 -42z"/>
</g>
</svg>
